<svg width="16" height="10" viewBox="0 0 16 10" fill="none" xmlns="http://www.w3.org/2000/svg">
<path d="M8.242 6.96467C8.242 5.73267 7.656 4.822 6.44533 4.48067C7.32867 4.06 7.78933 3.42267 7.78933 2.43133C7.78933 0.476667 6.328 0 4.642 0H0V9.814H4.772C6.56133 9.814 8.242 8.95866 8.242 6.96467ZM2.164 1.67533H4.19467C4.97533 1.67533 5.678 1.894 5.678 2.79667C5.678 3.63 5.13133 3.96533 4.358 3.96533H2.164V1.67533ZM2.16333 8.14733V5.44467H4.522C5.47467 5.44467 6.07733 5.84067 6.07733 6.846C6.07733 7.83733 5.358 8.14733 4.47733 8.14733H2.16333Z" fill="white"/>
<path d="M12.5307 9.99994C14.2333 9.99994 15.336 9.23528 15.8667 7.60994H14.1387C13.9527 8.21661 13.186 8.53728 12.5913 8.53728C11.444 8.53728 10.8413 7.86728 10.8413 6.72861H15.9833C15.992 6.61328 16 6.48861 16 6.36394C16 4.26194 14.7667 2.50928 12.5307 2.50928C10.358 2.50928 8.88333 4.13728 8.88333 6.26994C8.88266 8.48194 10.28 9.99994 12.5307 9.99994ZM12.4693 3.98261C13.4527 3.98261 13.9473 4.55861 14.03 5.50061H10.844C10.9087 4.56661 11.5307 3.98261 12.4693 3.98261Z" fill="white"/>
<path d="M10.4446 0.514893H14.4366V1.48156H10.4446V0.514893Z" fill="white"/>
</svg>
