<svg width="16" height="17" viewBox="0 0 16 17" fill="none" xmlns="http://www.w3.org/2000/svg">
<path d="M16 8.26667C16 3.70063 12.4187 0 8 0C3.58125 0 0 3.70063 0 8.26667C0 12.8327 3.58125 16.5333 8 16.5333C8.04688 16.5333 8.09375 16.5333 8.14062 16.5301V10.0976H6.42188V8.02771H8.14062V6.50354C8.14062 4.73719 9.18438 3.7749 10.7094 3.7749C11.4406 3.7749 12.0688 3.82979 12.25 3.85562V5.70271H11.2C10.3719 5.70271 10.2094 6.10958 10.2094 6.70698V8.02448H12.1938L11.9344 10.0944H10.2094V16.2136C13.5531 15.2223 16 12.0416 16 8.26667Z" fill="white"/>
</svg>
