<svg width="16" height="17" viewBox="0 0 16 17" fill="none" xmlns="http://www.w3.org/2000/svg">
<path d="M9.59999 8.53323C9.59999 9.4169 8.88367 10.1332 7.99999 10.1332C7.11632 10.1332 6.39999 9.4169 6.39999 8.53323C6.39999 7.64955 7.11632 6.93323 7.99999 6.93323C8.88367 6.93323 9.59999 7.64955 9.59999 8.53323Z" fill="white"/>
<path d="M11.55 5.84726C11.477 5.64953 11.3606 5.47056 11.2093 5.32366C11.0624 5.17239 10.8836 5.05598 10.6857 4.98301C10.5253 4.92069 10.2842 4.84651 9.84022 4.8263C9.35993 4.8044 9.21593 4.79968 8.00003 4.79968C6.784 4.79968 6.64 4.80428 6.15983 4.82618C5.71585 4.84651 5.47467 4.92069 5.31433 4.98301C5.11648 5.05598 4.93751 5.17239 4.79073 5.32366C4.63946 5.47056 4.52305 5.64941 4.44996 5.84726C4.38764 6.00772 4.31346 6.2489 4.29325 6.69288C4.27135 7.17305 4.26663 7.31705 4.26663 8.53308C4.26663 9.74898 4.27135 9.89298 4.29325 10.3733C4.31346 10.8173 4.38764 11.0583 4.44996 11.2188C4.52305 11.4166 4.63934 11.5955 4.7906 11.7424C4.93751 11.8936 5.11636 12.0101 5.31421 12.083C5.47467 12.1455 5.71585 12.2196 6.15983 12.2398C6.64 12.2618 6.78388 12.2663 7.9999 12.2663C9.21605 12.2663 9.36005 12.2618 9.8401 12.2398C10.2841 12.2196 10.5253 12.1455 10.6857 12.083C11.0829 11.9298 11.3968 11.6159 11.55 11.2188C11.6123 11.0583 11.6865 10.8173 11.7068 10.3733C11.7287 9.89298 11.7333 9.74898 11.7333 8.53308C11.7333 7.31705 11.7287 7.17305 11.7068 6.69288C11.6866 6.2489 11.6124 6.00772 11.55 5.84726ZM8.00003 10.8713C6.70849 10.8713 5.66151 9.82449 5.66151 8.53296C5.66151 7.24142 6.70849 6.19456 8.00003 6.19456C9.29144 6.19456 10.3384 7.24142 10.3384 8.53296C10.3384 9.82449 9.29144 10.8713 8.00003 10.8713ZM10.4309 6.64859C10.1291 6.64859 9.88439 6.40391 9.88439 6.10211C9.88439 5.80031 10.1291 5.55563 10.4309 5.55563C10.7327 5.55563 10.9774 5.80031 10.9774 6.10211C10.9772 6.40391 10.7327 6.64859 10.4309 6.64859Z" fill="white"/>
<path d="M8 0C3.5824 0 0 3.70181 0 8.26667C0 12.8315 3.5824 16.5333 8 16.5333C12.4176 16.5333 16 12.8315 16 8.26667C16 3.70181 12.4176 0 8 0ZM12.566 10.2237C12.5438 10.729 12.4661 11.074 12.3525 11.376C12.1139 12.0136 11.6261 12.5177 11.009 12.7643C10.7169 12.8816 10.3829 12.9618 9.89404 12.9849C9.40417 13.008 9.24768 13.0135 8.00012 13.0135C6.75244 13.0135 6.59607 13.008 6.10608 12.9849C5.61719 12.9618 5.2832 12.8816 4.99109 12.7643C4.68445 12.6451 4.40686 12.4583 4.17737 12.2167C3.94373 11.9797 3.76294 11.6927 3.64758 11.376C3.53406 11.0741 3.4563 10.729 3.43408 10.2238C3.4115 9.71752 3.40625 9.55581 3.40625 8.26667C3.40625 6.97752 3.4115 6.81581 3.43396 6.30961C3.45618 5.8043 3.53381 5.45931 3.64734 5.15733C3.7627 4.8406 3.9436 4.55363 4.17737 4.31661C4.40674 4.07506 4.68445 3.88824 4.99097 3.76904C5.2832 3.65173 5.61707 3.57151 6.10608 3.54843C6.59595 3.52534 6.75244 3.51979 8 3.51979C9.24756 3.51979 9.40405 3.52534 9.89392 3.54855C10.3829 3.57151 10.7168 3.65173 11.009 3.76892C11.3156 3.88812 11.5933 4.07506 11.8228 4.31661C12.0564 4.55376 12.2373 4.8406 12.3525 5.15733C12.4662 5.45931 12.5438 5.8043 12.5662 6.30961C12.5885 6.81581 12.5938 6.97752 12.5938 8.26667C12.5938 9.55581 12.5885 9.71752 12.566 10.2237Z" fill="white"/>
</svg>
