<svg width="16" height="13" viewBox="0 0 16 13" fill="none" xmlns="http://www.w3.org/2000/svg">
<path d="M14.5938 0H1.40627C1.1898 0 0.987146 0.0532189 0.803802 0.140938L7.96878 7.30591L9.57469 5.76257C9.57469 5.76257 9.57481 5.76241 9.57484 5.76235C9.57487 5.76229 9.575 5.76222 9.575 5.76222L15.1965 0.141063C15.0131 0.0532813 14.8103 0 14.5938 0Z" fill="white"/>
<path d="M15.8593 0.803955L10.5692 6.09377L15.8591 11.3837C15.9468 11.2003 16 10.9977 16 10.7812V1.40621C16 1.18986 15.9469 0.987236 15.8593 0.803955Z" fill="white"/>
<path d="M0.140938 0.803223C0.0532188 0.986567 0 1.18922 0 1.40569V10.7807C0 10.997 0.0531563 11.1997 0.140813 11.383L5.43091 6.09319L0.140938 0.803223Z" fill="white"/>
<path d="M9.90634 6.75641L8.30021 8.29994C8.20865 8.3915 8.08871 8.43729 7.96881 8.43729C7.8489 8.43729 7.72893 8.3915 7.6374 8.29994L6.09377 6.75635L0.803581 12.0462C0.986956 12.134 1.18974 12.1873 1.40627 12.1873H14.5938C14.8102 12.1873 15.0129 12.134 15.1962 12.0463L9.90634 6.75641Z" fill="white"/>
</svg>
