<svg width="16" height="13" viewBox="0 0 16 13" fill="none" xmlns="http://www.w3.org/2000/svg">
<path d="M14.7233 1.45581L16 0.261433V0H11.5773L8.42533 7.67218L4.83933 0H0.202V0.261433L1.69333 2.01714C1.83867 2.14688 1.91467 2.3366 1.89533 2.52762V9.42723C1.94133 9.67563 1.85867 9.93119 1.68 10.1118L0 12.1028V12.361H4.76333V12.0996L3.08333 10.1118C2.90133 9.93054 2.81533 9.67954 2.852 9.42723V3.45926L7.03333 12.3643H7.51933L11.1147 3.45926V10.5532C11.1147 10.7403 11.1147 10.7787 10.9893 10.9013L9.696 12.125V12.3871H15.9707V12.1257L14.724 10.9319C14.6147 10.8511 14.558 10.7155 14.5813 10.5838V1.80395C14.558 1.67161 14.614 1.536 14.7233 1.45581Z" fill="white"/>
</svg>
