<svg width="16" height="17" viewBox="0 0 16 17" fill="none" xmlns="http://www.w3.org/2000/svg">
<path d="M8 16.5333C12.4193 16.5333 16 12.8333 16 8.26667C16 3.70002 12.4193 0 8 0C3.58067 0 0 3.70002 0 8.26667C0 12.8333 3.58067 16.5333 8 16.5333ZM3.66067 8.08755L11.374 5.01442C11.732 4.88078 12.0447 5.10467 11.9287 5.66404L11.9293 5.66335L10.616 12.0569C10.5187 12.5102 10.258 12.6204 9.89333 12.4069L7.89333 10.8838L6.92867 11.8441C6.822 11.9543 6.732 12.0473 6.52533 12.0473L6.66733 9.94411L10.374 6.48382C10.5353 6.33709 10.338 6.25442 10.1253 6.40047L5.54467 9.3806L3.57 8.74407C3.14133 8.60353 3.132 8.30111 3.66067 8.08755Z" fill="white"/>
</svg>
