<svg width="16" height="12" viewBox="0 0 16 12" fill="none" xmlns="http://www.w3.org/2000/svg">
<path d="M15.6703 1.73327C15.486 1.05551 14.9455 0.521237 14.2602 0.338737C13.0081 0 7.99982 0 7.99982 0C7.99982 0 2.9917 0 1.73965 0.325894C1.06748 0.508202 0.513868 1.05561 0.329493 1.73327C0 2.97119 0 5.53846 0 5.53846C0 5.53846 0 8.11867 0.329493 9.34365C0.514063 10.0213 1.0543 10.5556 1.73975 10.7381C3.00489 11.0769 8.00002 11.0769 8.00002 11.0769C8.00002 11.0769 13.0081 11.0769 14.2602 10.751C14.9456 10.5686 15.486 10.0344 15.6705 9.35669C15.9999 8.11867 15.9999 5.5515 15.9999 5.5515C15.9999 5.5515 16.0131 2.97119 15.6703 1.73327ZM6.40529 7.9102V3.16673L10.5699 5.53846L6.40529 7.9102Z" fill="white"/>
</svg>
